# xmcd
#
# Track frame offsets:
#	150
#	18951
#	35333
#	50380
#	71742
#	85498
#	99506
#	114538
#	133843
#	148934
#	158118
#	173434
#	185275
#	193590
#	204454
#	219309
#
# Disc length: 3040 seconds
#
# Revision: 1
# Processed by: cddbd v1.4PL0 Copyright (c) Steve Scherf et al.
# Submitted via: EasyCDDAExtractor 5.0.7
#
DISCID=df0bde10
DTITLE=Four Potatoes - Oldtime Stringband
DYEAR=2000
DGENRE=Country
TTITLE0=Rickett's Hornpipe - Nancy - Liberty
TTITLE1=Sail Away Ladies
TTITLE2=The Flowers Of Edinburgh - Mrs. McLeod's Reel
TTITLE3=There's More Pretty Girls Than One
TTITLE4=June Apple - Salt Creek
TTITLE5=Turkey In The Straw
TTITLE6=Pays De Haut - Rock The Cradle Joe
TTITLE7=Been All Around This World
TTITLE8=Cold Frosty Morning - Kitchen Girl
TTITLE9=Pig In The Pen
TTITLE10=Sandy River Belle - Jawbones
TTITLE11=Who Broke The Lock On The Henhouse Door
TTITLE12=Colored Aristocracy
TTITLE13=Whoa Mule
TTITLE14=Old Mother Flannagan - Did You Ever See The Devil Uncle Joe?
TTITLE15=Old Jimmy Sutton
EXTD=
EXTT0=
EXTT1=
EXTT2=
EXTT3=
EXTT4=
EXTT5=
EXTT6=
EXTT7=
EXTT8=
EXTT9=
EXTT10=
EXTT11=
EXTT12=
EXTT13=
EXTT14=
EXTT15=
PLAYORDER=
